<?xml version="1.0" encoding="UTF-8" standalone="no"?>
<svg
   height="24"
   viewBox="0 0 24 24"
   width="24"
   version="1.1"
   id="svg1647"
   sodipodi:docname="Camera.svg"
   inkscape:version="1.1.2 (b8e25be833, 2022-02-05)"
   xmlns:inkscape="http://www.inkscape.org/namespaces/inkscape"
   xmlns:sodipodi="http://sodipodi.sourceforge.net/DTD/sodipodi-0.dtd"
   xmlns="http://www.w3.org/2000/svg"
   xmlns:svg="http://www.w3.org/2000/svg">
  <defs
     id="defs1651" />
  <sodipodi:namedview
     id="namedview1649"
     pagecolor="#505050"
     bordercolor="#eeeeee"
     borderopacity="1"
     inkscape:pageshadow="0"
     inkscape:pageopacity="0"
     inkscape:pagecheckerboard="0"
     showgrid="false"
     inkscape:zoom="33.666667"
     inkscape:cx="13.752475"
     inkscape:cy="10.60396"
     inkscape:window-width="1920"
     inkscape:window-height="1017"
     inkscape:window-x="-8"
     inkscape:window-y="-8"
     inkscape:window-maximized="1"
     inkscape:current-layer="svg1647" />
  <circle
     style="fill:#214478;stroke:#7c7875;stroke-width:1;stroke-opacity:0;fill-opacity:1"
     id="path1732"
     cx="12"
     cy="12"
     r="11.5" />
  <path
     d="m 15.957636,11.273427 c 0,-0.497388 -0.36774,-0.913347 -0.854995,-1.013447 0.194686,-0.3117102 0.314201,-0.6721722 0.314201,-1.0611622 0,-1.144146 -0.970185,-2.0746086 -2.163177,-2.0746086 -0.819844,0 -1.526121,0.4444846 -1.89278,1.0912446 -0.366658,-0.64676 -1.072935,-1.0912446 -1.892779,-1.0912446 -1.192992,0 -2.1631769,0.9304626 -2.1631769,2.0746086 0,0.467825 0.1687278,0.8951942 0.4418289,1.2426912 a 1.0778029,1.0336739 0 0 0 -0.4418289,0.831918 v 4.149218 c 0,0.572073 0.4850925,1.037304 1.0815885,1.037304 h 6.4895304 c 0.596496,0 1.081588,-0.465231 1.081588,-1.037304 v -1.367686 l 2.163177,1.037304 v -3.630565 l -2.163177,1.037304 z M 13.253665,8.1615138 c 0.596496,0 1.081589,0.465231 1.081589,1.037304 0,0.572074 -0.485093,1.0373042 -1.081589,1.0373042 -0.596496,0 -1.081588,-0.4652302 -1.081588,-1.0373042 0,-0.572073 0.485092,-1.037304 1.081588,-1.037304 z m -3.785559,0 c 0.596496,0 1.081588,0.465231 1.081588,1.037304 0,0.572074 -0.485092,1.0373042 -1.081588,1.0373042 -0.596496,0 -1.0815884,-0.4652302 -1.0815884,-1.0373042 0,-0.572073 0.4850924,-1.037304 1.0815884,-1.037304 z"
     id="path1645"
     style="stroke-width:1;fill:#0b2817" />
  <path
     style="fill:#0b2817;stroke:#7c7875;stroke-width:1;stroke-opacity:0"
     d="M 8.0940594,16.398946 C 7.7750042,16.297777 7.5423065,16.096188 7.4049728,15.80198 l -0.083191,-0.178218 v -2.257425 c 0,-2.596553 -0.016347,-2.434846 0.2783879,-2.753927 l 0.159576,-0.172758 -0.074379,-0.112395 C 7.4410826,9.958119 7.3345838,9.6212832 7.3314614,9.2079208 7.326653,8.5713703 7.5894639,8.0333678 8.1088407,7.6165403 8.4739764,7.3234996 8.8682409,7.1769532 9.3593232,7.1517417 9.8834367,7.1248343 10.377027,7.27799 10.800349,7.5988767 c 0.180654,0.1369396 0.436645,0.4197531 0.495268,0.5471629 0.01691,0.036757 0.04651,0.066832 0.06577,0.066832 0.01926,0 0.04876,-0.030074 0.06555,-0.066832 0.05962,-0.1305006 0.306264,-0.4037919 0.490301,-0.5432634 0.698826,-0.5296018 1.599767,-0.6040381 2.384744,-0.1970293 0.144688,0.07502 0.290231,0.1893031 0.478572,0.3757822 0.222823,0.2206203 0.292319,0.3125921 0.393269,0.5204511 0.16294,0.3354986 0.214617,0.5500624 0.214617,0.8910891 0,0.3267279 -0.05058,0.5480722 -0.195443,0.8552237 -0.09131,0.193611 -0.09673,0.218445 -0.05104,0.233887 0.338217,0.114309 0.584091,0.32017 0.714378,0.598122 0.07761,0.165567 0.07963,0.184937 0.09416,0.901471 l 0.01485,0.732269 1.069306,-0.511735 1.069307,-0.511736 0.0079,0.902891 c 0.0043,0.49659 0.0043,1.300653 0,1.786806 l -0.0079,0.883917 -1.069307,-0.512853 -1.069306,-0.512853 -0.01646,0.792642 c -0.018,0.866764 -0.02866,0.926956 -0.208436,1.177295 -0.116636,0.162413 -0.309328,0.302051 -0.518034,0.375406 -0.155568,0.05468 -0.287835,0.0567 -3.585536,0.05479 -2.678885,-0.0016 -3.4498653,-0.01019 -3.5428216,-0.03966 z M 9.8807685,10.168167 C 10.44049,9.961872 10.713028,9.3234306 10.471302,8.7847946 10.371026,8.5613494 10.167531,8.3605332 9.9272693,8.2479225 9.778541,8.1782135 9.7204985,8.1683168 9.460396,8.1683168 c -0.2680738,0 -0.3142455,0.00845 -0.4736295,0.086709 -0.2249125,0.1104304 -0.4153551,0.300873 -0.5163651,0.516365 -0.067635,0.1442913 -0.079275,0.2085613 -0.079059,0.4365297 2.198e-4,0.2320398 0.011199,0.2896844 0.083171,0.4367038 0.2437916,0.4979997 0.8565753,0.7261367 1.4062551,0.5235427 z m 3.7528945,0.01237 c 0.263268,-0.08737 0.478374,-0.2771632 0.614207,-0.5419261 0.07364,-0.1435358 0.08381,-0.1958165 0.08381,-0.4306931 0,-0.2276449 -0.01177,-0.2924431 -0.07931,-0.4365297 -0.04362,-0.093062 -0.137915,-0.2278048 -0.209539,-0.2994293 -0.07162,-0.071625 -0.209696,-0.1692456 -0.306826,-0.2169357 -0.159384,-0.078256 -0.205556,-0.086709 -0.47363,-0.086709 -0.263113,0 -0.317379,0.0095 -0.475247,0.083191 -0.467852,0.2183895 -0.716348,0.7109495 -0.595889,1.1811497 0.161397,0.6299932 0.79998,0.9610922 1.442423,0.7478832 z"
     id="path2214" />
  <path
     style="fill:#164450;stroke:#7c7875;stroke-width:1;stroke-opacity:0"
     d="m 8.0680392,16.39198 c -0.2910253,-0.08937 -0.5274751,-0.299778 -0.6630215,-0.59 l -0.083235,-0.178218 v -2.257425 c 0,-2.597945 -0.016104,-2.436237 0.2738079,-2.749377 L 7.7597461,10.439652 7.6850112,10.32672 C 7.438355,9.9539974 7.3307453,9.6103815 7.3299874,9.1930693 7.3289715,8.6337675 7.5369717,8.1564221 7.9616606,7.7434246 8.5958113,7.1267317 9.5664186,6.9689496 10.381188,7.3501057 c 0.389798,0.1823506 0.585803,0.3516484 0.937136,0.8094441 0.04454,0.05804 0.05085,0.053426 0.19307,-0.1412783 0.195199,-0.2672339 0.473892,-0.494201 0.800487,-0.6519145 0.366459,-0.1769637 0.651564,-0.235151 1.051568,-0.2146153 0.585647,0.030066 0.994596,0.2117447 1.417622,0.6297874 0.234305,0.2315446 0.289518,0.3063379 0.406133,0.5501541 0.158445,0.331277 0.205069,0.5353304 0.202602,0.8866967 -0.0021,0.3027715 -0.05667,0.5327613 -0.196811,0.8299131 -0.09131,0.193611 -0.09673,0.218445 -0.05104,0.233887 0.338217,0.114309 0.584091,0.32017 0.714378,0.598122 0.0776,0.165553 0.07963,0.184987 0.09416,0.900903 l 0.01485,0.7317 1.069306,-0.51224 1.069307,-0.512239 0.0079,0.903963 c 0.0043,0.49718 0.0043,1.301797 0,1.788037 l -0.0079,0.884073 -1.069307,-0.511523 -1.069306,-0.511524 -0.01646,0.791155 c -0.018,0.865128 -0.02871,0.925543 -0.208436,1.175809 -0.116636,0.162413 -0.309328,0.302051 -0.518034,0.375406 -0.155574,0.05468 -0.28772,0.0567 -3.585536,0.0547 -2.9524925,-0.0018 -3.4439544,-0.0082 -3.5688418,-0.04654 z M 9.8369643,10.18377 C 10.317106,10.033259 10.630625,9.521166 10.5424,9.031533 10.479886,8.6845973 10.258828,8.403365 9.9259944,8.2473388 9.7780473,8.1779839 9.7210891,8.1684298 9.460396,8.1692402 9.1973512,8.1700579 9.143938,8.1795971 8.9935613,8.2526135 8.7704815,8.3609313 8.5693768,8.5602028 8.4707257,8.770683 8.4022466,8.9167886 8.3913073,8.9780481 8.3926463,9.2079208 8.3939045,9.423908 8.4072773,9.5021514 8.4622793,9.6153372 8.7093008,10.12367 9.2782222,10.358919 9.8369643,10.18377 Z M 13.5,10.217318 c 0.167597,-0.02731 0.443133,-0.181108 0.56386,-0.3147397 0.05631,-0.062324 0.139037,-0.1839699 0.183846,-0.2703237 0.07072,-0.136299 0.08164,-0.1922655 0.08272,-0.4243338 0.0011,-0.2294939 -0.01002,-0.291373 -0.07838,-0.4372378 -0.09865,-0.2104802 -0.299756,-0.4097517 -0.522836,-0.5180695 -0.150377,-0.073016 -0.20379,-0.082556 -0.466835,-0.083373 -0.260693,-8.103e-4 -0.317651,0.00874 -0.465598,0.078099 -0.232623,0.1090493 -0.423209,0.2938002 -0.527551,0.5113965 -0.115783,0.2414574 -0.138346,0.4378277 -0.07775,0.6766663 0.107089,0.4220879 0.454178,0.7328507 0.89104,0.7977857 0.149891,0.02228 0.193528,0.02062 0.417482,-0.01587 z"
     id="path2253" />
  <path
     style="fill:#214478;stroke:#7c7875;stroke-width:1;stroke-opacity:0"
     d="M 11.212871,23.461747 C 9.6174481,23.334469 8.1710014,22.928508 6.7722772,22.215445 3.5830776,20.589607 1.3485589,17.578842 0.70068668,14.034653 c -0.24111972,-1.319046 -0.24111972,-2.75026 0,-4.0693065 C 1.3512877,6.40623 3.5908589,3.3982987 6.8019802,1.7707996 8.048825,1.1388587 9.2496713,0.77283486 10.678218,0.58930326 c 0.516509,-0.0663582 2.022068,-0.0762128 2.509901,-0.0164285 1.132457,0.13878345 2.048656,0.36471343 3,0.73978444 3.724167,1.4682678 6.390501,4.7142321 7.11234,8.6584833 0.237774,1.2992375 0.237774,2.7584775 0,4.0577155 -0.429015,2.344208 -1.546698,4.468452 -3.224799,6.128978 -1.600455,1.583694 -3.660918,2.675364 -5.87764,3.114078 -0.682009,0.134977 -1.170576,0.18135 -2.019802,0.191713 -0.449258,0.0055 -0.883664,0.0046 -0.965347,-0.0019 z M 15.33321,16.37584 c 0.237847,-0.111479 0.443182,-0.31328 0.546606,-0.537197 l 0.08553,-0.185178 0.0096,-0.779703 c 0.0053,-0.428836 0.01408,-0.779703 0.01953,-0.779703 0.0055,0 0.467296,0.220179 1.026313,0.489287 0.559016,0.269108 1.04144,0.497236 1.072053,0.506952 0.054,0.01714 0.05566,-0.03689 0.05566,-1.811069 0,-1.005804 -0.01066,-1.828734 -0.02368,-1.828734 -0.01302,0 -0.495748,0.227228 -1.072717,0.504951 -0.57697,0.277722 -1.053124,0.50495 -1.058121,0.50495 -0.005,0 -0.01424,-0.31745 -0.02053,-0.705446 -0.01262,-0.777957 -0.02773,-0.856983 -0.209126,-1.093493 -0.124456,-0.162273 -0.342633,-0.322643 -0.503319,-0.36996 l -0.127357,-0.0375 0.09396,-0.192997 C 15.50798,9.4851187 15.484966,8.7711211 15.167762,8.2039081 14.952852,7.8196144 14.543556,7.4588952 14.122205,7.2824424 13.507428,7.0249877 12.746807,7.0686582 12.163425,7.3949041 11.936374,7.5218783 11.589617,7.8364996 11.452546,8.0399023 l -0.09361,0.1389125 -0.08131,-0.1285162 C 11.159121,7.8629783 10.788582,7.5230427 10.570335,7.4014203 9.9768184,7.070673 9.2321762,7.0236633 8.6074714,7.2775037 8.0527545,7.5029052 7.5668456,8.0230455 7.3838846,8.58729 7.2108469,9.1209312 7.3071639,9.8225655 7.6163275,10.280552 l 0.1024987,0.151839 -0.1137659,0.111089 c -0.1608443,0.157061 -0.2610481,0.357981 -0.298312,0.598152 -0.021448,0.13824 -0.029219,0.917035 -0.023393,2.344565 l 0.00872,2.137565 0.067822,0.167736 c 0.1197113,0.296066 0.3845744,0.537351 0.6980997,0.635955 0.1013997,0.03189 0.7878882,0.03829 3.615266,0.03368 l 3.490099,-0.0057 z"
     id="path2366" />
  <path
     style="fill:#ffffff;stroke:#7c7875;stroke-width:1;stroke-opacity:0"
     d="m 9.5940594,16.411797 -1.5,-0.01576 -0.1670655,-0.08205 C 7.7297167,16.217114 7.5210063,16.004431 7.4118756,15.789072 l -0.078271,-0.154461 0.010481,-2.292553 c 0.008,-1.748844 0.019419,-2.319572 0.048166,-2.406478 0.020727,-0.06266 0.1102561,-0.192865 0.198954,-0.289347 0.088698,-0.09648 0.161181,-0.192244 0.1610733,-0.212807 -1.076e-4,-0.02056 -0.027536,-0.07749 -0.060953,-0.126495 C 7.0025791,9.2967815 7.387412,7.9218073 8.509901,7.3822368 8.8289761,7.2288603 9.0978149,7.1672818 9.4447651,7.1681028 c 0.6820859,0.00161 1.2439579,0.262135 1.6858119,0.781652 0.12308,0.1447141 0.228135,0.2631165 0.233456,0.2631165 0.0053,0 0.08486,-0.094237 0.176764,-0.2094154 0.213276,-0.2673031 0.435159,-0.442463 0.771084,-0.6087149 0.391307,-0.1936608 0.57473,-0.2315567 1.039604,-0.2147873 0.625376,0.022559 0.956716,0.1692768 1.427111,0.6319275 0.217155,0.2135797 0.293149,0.3121159 0.377975,0.490099 0.17168,0.360218 0.212857,0.5370368 0.210969,0.9059406 -0.0017,0.3313118 -0.0515,0.5352669 -0.230161,0.9425502 l -0.04863,0.110867 0.185825,0.09309 c 0.257293,0.12889 0.406005,0.258217 0.525294,0.45682 0.09886,0.164594 0.102504,0.181878 0.124337,0.590049 0.01237,0.231268 0.02335,0.577542 0.02439,0.769497 0.001,0.191956 0.01193,0.348255 0.02418,0.347331 0.01225,-9.23e-4 0.490099,-0.226282 1.061881,-0.500799 l 1.039604,-0.499121 0.0079,0.88907 c 0.0043,0.488988 0.0043,1.28019 0,1.758228 l -0.0079,0.869158 -1.039604,-0.498345 c -0.571782,-0.274089 -1.049628,-0.49909 -1.061881,-0.500003 -0.01225,-9.11e-4 -0.02298,0.142031 -0.02383,0.317649 -8.55e-4,0.175619 -0.01263,0.549054 -0.02617,0.829855 -0.02132,0.442271 -0.03381,0.529557 -0.09342,0.652691 -0.08856,0.182929 -0.277241,0.370637 -0.47774,0.475262 l -0.15854,0.08273 -0.861386,0.01989 c -0.954901,0.02205 -2.47135,0.02122 -4.7376236,-0.0026 z m 0.09248,-6.179572 c 0.3534066,-0.0666 0.6412786,-0.2909817 0.7930076,-0.6181118 0.064,-0.1379884 0.07814,-0.2116763 0.07792,-0.4061924 C 10.557117,8.8955975 10.457593,8.6658421 10.229008,8.4496554 9.9819957,8.2160417 9.8516123,8.1683168 9.460396,8.1683168 c -0.3158796,0 -0.3329811,0.00339 -0.5148432,0.101988 -0.2295916,0.1244777 -0.4299451,0.3455188 -0.5133251,0.5663289 -0.049962,0.1323121 -0.059335,0.2113592 -0.049308,0.4158415 0.01448,0.2953028 0.074735,0.4357623 0.281979,0.6573229 0.2580049,0.2758279 0.6359579,0.3951089 1.0216407,0.3224269 z M 13.526149,10.2175 c 0.315652,-0.08222 0.581528,-0.2927829 0.736592,-0.583359 0.09695,-0.1816701 0.100392,-0.6562283 0.0062,-0.8569133 -0.09356,-0.1993864 -0.281237,-0.3927866 -0.492102,-0.5071149 -0.181446,-0.098378 -0.198721,-0.101796 -0.514483,-0.101796 -0.273689,0 -0.349641,0.01058 -0.467844,0.065171 -0.210517,0.097226 -0.445517,0.3348914 -0.545794,0.5519858 -0.165389,0.3580555 -0.09998,0.7968824 0.163502,1.0969749 0.191376,0.2179655 0.528823,0.3732025 0.821618,0.3779715 0.066,0.0011 0.19753,-0.01824 0.292291,-0.04292 z"
     id="path2479" />
</svg>
