<?xml version="1.0" encoding="UTF-8" standalone="no"?>
<svg
   height="24"
   viewBox="0 0 48 24"
   width="48"
   version="1.1"
   id="svg1647"
   sodipodi:docname="Camera-Long.svg"
   inkscape:version="1.1.2 (b8e25be833, 2022-02-05)"
   xmlns:inkscape="http://www.inkscape.org/namespaces/inkscape"
   xmlns:sodipodi="http://sodipodi.sourceforge.net/DTD/sodipodi-0.dtd"
   xmlns="http://www.w3.org/2000/svg"
   xmlns:svg="http://www.w3.org/2000/svg">
  <defs
     id="defs1651" />
  <sodipodi:namedview
     id="namedview1649"
     pagecolor="#505050"
     bordercolor="#eeeeee"
     borderopacity="1"
     inkscape:pageshadow="0"
     inkscape:pageopacity="0"
     inkscape:pagecheckerboard="0"
     showgrid="false"
     inkscape:zoom="33.666667"
     inkscape:cx="14.777228"
     inkscape:cy="12.980198"
     inkscape:window-width="1920"
     inkscape:window-height="1017"
     inkscape:window-x="-8"
     inkscape:window-y="-8"
     inkscape:window-maximized="1"
     inkscape:current-layer="svg1647"
     width="48px" />
  <path
     style="fill:#214478;stroke:#7c7875;stroke-width:1;stroke-opacity:0"
     d="m 23.193502,23.436073 c -1.595423,-0.127278 -3.04187,-0.533239 -4.440594,-1.246302 -3.189199,-1.625838 -5.423718,-4.636603 -6.07159,-8.180792 -0.24112,-1.319046 -0.24112,-2.75026 0,-4.0693067 0.650601,-3.559116 2.890172,-6.567048 6.101293,-8.194547 1.246845,-0.631941 2.447691,-0.99796396 3.876238,-1.18149596 0.516509,-0.06636 2.022068,-0.07621 2.509901,-0.01643 1.132457,0.138783 2.048656,0.364713 3,0.73978396 3.724167,1.468268 6.390501,4.714232 7.11234,8.658483 0.237774,1.2992377 0.237774,2.7584777 0,4.0577157 -0.429015,2.344208 -1.546698,4.468452 -3.224799,6.128978 -1.600455,1.583694 -3.660918,2.675364 -5.87764,3.114078 -0.682009,0.134977 -1.170576,0.18135 -2.019802,0.191713 -0.449258,0.0055 -0.883664,0.0046 -0.965347,-0.0019 z m 4.120339,-7.085907 c 0.237847,-0.111479 0.443182,-0.31328 0.546606,-0.537197 l 0.08553,-0.185178 0.0096,-0.779703 c 0.0053,-0.428836 0.01408,-0.779703 0.01953,-0.779703 0.0055,0 0.467296,0.220179 1.026313,0.489287 0.559016,0.269108 1.04144,0.497236 1.072053,0.506952 0.054,0.01714 0.05566,-0.03689 0.05566,-1.811069 0,-1.005804 -0.01066,-1.828734 -0.02368,-1.828734 -0.01302,0 -0.495748,0.227228 -1.072717,0.504951 -0.57697,0.277722 -1.053124,0.50495 -1.058121,0.50495 -0.005,0 -0.01424,-0.31745 -0.02053,-0.705446 -0.01262,-0.777957 -0.02773,-0.856983 -0.209126,-1.093493 -0.124456,-0.162273 -0.342633,-0.322643 -0.503319,-0.36996 l -0.127357,-0.0375 0.09396,-0.192997 c 0.280368,-0.5758817 0.257354,-1.2898787 -0.05985,-1.8570917 -0.21491,-0.384294 -0.624206,-0.745013 -1.045557,-0.921466 -0.614777,-0.257455 -1.375398,-0.213784 -1.95878,0.112462 -0.227051,0.126974 -0.573808,0.441595 -0.710879,0.644998 l -0.09361,0.138913 -0.08131,-0.128517 c -0.118505,-0.18732 -0.489044,-0.527256 -0.707291,-0.648878 -0.593517,-0.330747 -1.338159,-0.377757 -1.962864,-0.123917 -0.554717,0.225402 -1.040625,0.745542 -1.223586,1.309787 -0.173038,0.533641 -0.07672,1.235275 0.232442,1.6932617 l 0.102499,0.151839 -0.113766,0.111089 c -0.160844,0.157061 -0.261048,0.357981 -0.298312,0.598152 -0.02145,0.13824 -0.02922,0.917035 -0.02339,2.344565 l 0.0087,2.137565 0.06782,0.167736 c 0.119712,0.296066 0.384575,0.537351 0.6981,0.635955 0.1014,0.03189 0.787888,0.03829 3.615266,0.03368 l 3.490099,-0.0057 z"
     id="path2366" />
  <path
     style="fill:#ffffff;stroke:#7c7875;stroke-width:1;stroke-opacity:0"
     d="m 21.57469,16.386123 -1.5,-0.01576 -0.167065,-0.08205 c -0.197277,-0.09687 -0.405988,-0.309556 -0.515118,-0.524915 l -0.07827,-0.154461 0.01048,-2.292553 c 0.008,-1.748844 0.01942,-2.319572 0.04817,-2.406478 0.02073,-0.06266 0.110256,-0.192865 0.198954,-0.289347 0.0887,-0.09648 0.161181,-0.192244 0.161073,-0.212807 -1.08e-4,-0.02056 -0.02754,-0.07749 -0.06095,-0.126495 -0.688747,-1.0101497 -0.303914,-2.3851237 0.818575,-2.9246937 0.319075,-0.153377 0.587914,-0.214955 0.934864,-0.214134 0.682086,0.0016 1.243958,0.262135 1.685812,0.781652 0.12308,0.144714 0.228135,0.263116 0.233456,0.263116 0.0053,0 0.08486,-0.09424 0.176764,-0.209415 0.213276,-0.267303 0.435159,-0.442463 0.771084,-0.608715 0.391307,-0.193661 0.57473,-0.231557 1.039604,-0.214788 0.625376,0.02256 0.956716,0.169277 1.427111,0.631928 0.217155,0.21358 0.293149,0.312116 0.377975,0.490099 0.17168,0.360218 0.212857,0.537037 0.210969,0.905941 -0.0017,0.331311 -0.0515,0.535266 -0.230161,0.9425497 l -0.04863,0.110867 0.185825,0.09309 c 0.257293,0.12889 0.406005,0.258217 0.525294,0.45682 0.09886,0.164594 0.102504,0.181878 0.124337,0.590049 0.01237,0.231268 0.02335,0.577542 0.02439,0.769497 0.001,0.191956 0.01193,0.348255 0.02418,0.347331 0.01225,-9.23e-4 0.490099,-0.226282 1.061881,-0.500799 l 1.039604,-0.499121 0.0079,0.88907 c 0.0043,0.488988 0.0043,1.28019 0,1.758228 l -0.0079,0.869158 -1.039604,-0.498345 c -0.571782,-0.274089 -1.049628,-0.49909 -1.061881,-0.500003 -0.01225,-9.11e-4 -0.02298,0.142031 -0.02383,0.317649 -8.55e-4,0.175619 -0.01263,0.549054 -0.02617,0.829855 -0.02132,0.442271 -0.03381,0.529557 -0.09342,0.652691 -0.08856,0.182929 -0.277241,0.370637 -0.47774,0.475262 l -0.15854,0.08273 -0.861386,0.01989 c -0.954901,0.02205 -2.47135,0.02122 -4.737624,-0.0026 z m 0.09248,-6.179572 c 0.353407,-0.0666 0.641279,-0.2909817 0.793008,-0.6181117 0.064,-0.137988 0.07814,-0.211676 0.07792,-0.406192 -3.5e-4,-0.312324 -0.09987,-0.542079 -0.328459,-0.758266 -0.247012,-0.233614 -0.377396,-0.281338 -0.768612,-0.281338 -0.31588,0 -0.332981,0.0034 -0.514843,0.101988 -0.229592,0.124477 -0.429945,0.345518 -0.513325,0.566328 -0.04996,0.132313 -0.05934,0.21136 -0.04931,0.415842 0.01448,0.295303 0.07474,0.435762 0.281979,0.657323 0.258005,0.2758277 0.635958,0.3951087 1.02164,0.3224267 z m 3.83961,-0.01473 c 0.315652,-0.08222 0.581528,-0.2927827 0.736592,-0.5833587 0.09695,-0.18167 0.100392,-0.656229 0.0062,-0.856914 -0.09356,-0.199386 -0.281237,-0.392786 -0.492102,-0.507114 -0.181446,-0.09838 -0.198721,-0.101796 -0.514483,-0.101796 -0.273689,0 -0.349641,0.01058 -0.467844,0.06517 -0.210517,0.09723 -0.445517,0.334891 -0.545794,0.551985 -0.165389,0.358056 -0.09998,0.796883 0.163502,1.096975 0.191376,0.2179657 0.528823,0.3732027 0.821618,0.3779717 0.066,0.0011 0.19753,-0.01824 0.292291,-0.04292 z"
     id="path2479" />
</svg>
