<?xml version="1.0" encoding="UTF-8" standalone="no"?>
<!-- Created with Inkscape (http://www.inkscape.org/) -->

<svg
   width="500mm"
   height="500mm"
   viewBox="0 0 499.99999 499.99999"
   version="1.1"
   id="svg5"
   inkscape:version="1.1.2 (b8e25be833, 2022-02-05)"
   sodipodi:docname="FancyNoteIcon.svg"
   xmlns:inkscape="http://www.inkscape.org/namespaces/inkscape"
   xmlns:sodipodi="http://sodipodi.sourceforge.net/DTD/sodipodi-0.dtd"
   xmlns:xlink="http://www.w3.org/1999/xlink"
   xmlns="http://www.w3.org/2000/svg"
   xmlns:svg="http://www.w3.org/2000/svg">
  <sodipodi:namedview
     id="namedview7"
     pagecolor="#505050"
     bordercolor="#eeeeee"
     borderopacity="1"
     inkscape:pageshadow="0"
     inkscape:pageopacity="0"
     inkscape:pagecheckerboard="0"
     inkscape:document-units="mm"
     showgrid="false"
     units="mm"
     width="500mm"
     inkscape:zoom="2.0060209"
     inkscape:cx="851.09248"
     inkscape:cy="862.01974"
     inkscape:window-width="1920"
     inkscape:window-height="1017"
     inkscape:window-x="-8"
     inkscape:window-y="-8"
     inkscape:window-maximized="1"
     inkscape:current-layer="layer1"
     inkscape:rotation="45" />
  <defs
     id="defs2">
    <inkscape:path-effect
       effect="bspline"
       id="path-effect21183"
       is_visible="true"
       lpeversion="1"
       weight="33.333333"
       steps="2"
       helper_size="0"
       apply_no_weight="true"
       apply_with_weight="true"
       only_selected="false" />
    <inkscape:path-effect
       effect="bspline"
       id="path-effect13785"
       is_visible="true"
       lpeversion="1"
       weight="33.333333"
       steps="2"
       helper_size="0"
       apply_no_weight="true"
       apply_with_weight="true"
       only_selected="false" />
    <inkscape:path-effect
       effect="bspline"
       id="path-effect13748"
       is_visible="true"
       lpeversion="1"
       weight="33.333333"
       steps="2"
       helper_size="0"
       apply_no_weight="true"
       apply_with_weight="true"
       only_selected="false" />
    <inkscape:path-effect
       effect="bspline"
       id="path-effect13376"
       is_visible="true"
       lpeversion="1"
       weight="33.333333"
       steps="2"
       helper_size="0"
       apply_no_weight="true"
       apply_with_weight="true"
       only_selected="false" />
    <inkscape:path-effect
       effect="bspline"
       id="path-effect11590"
       is_visible="true"
       lpeversion="1"
       weight="33.333333"
       steps="2"
       helper_size="0"
       apply_no_weight="true"
       apply_with_weight="true"
       only_selected="false" />
    <linearGradient
       inkscape:collect="always"
       id="linearGradient3684">
      <stop
         style="stop-color:#004270;stop-opacity:1"
         offset="0"
         id="stop3680" />
      <stop
         style="stop-color:#0294fb;stop-opacity:1"
         offset="1"
         id="stop3682" />
    </linearGradient>
    <linearGradient
       id="linearGradient3640"
       inkscape:swatch="solid">
      <stop
         style="stop-color:#0061da;stop-opacity:1;"
         offset="0"
         id="stop3638" />
    </linearGradient>
    <linearGradient
       inkscape:collect="always"
       xlink:href="#linearGradient3684"
       id="linearGradient3686"
       x1="250.44308"
       y1="498.12671"
       x2="250.44308"
       y2="-0.44308344"
       gradientUnits="userSpaceOnUse" />
  </defs>
  <g
     inkscape:label="Layer 1"
     inkscape:groupmode="layer"
     id="layer1">
    <circle
       style="opacity:0.936992;fill:url(#linearGradient3686);stroke:#ffffff;stroke-width:4;stroke-linecap:square;stroke-linejoin:round;stroke-opacity:0;fill-opacity:1"
       id="path846"
       cx="250"
       cy="250"
       r="248" />
    <path
       style="fill:#cd9f0b;stroke:#ffffff;stroke-width:1;stroke-linecap:butt;stroke-linejoin:miter;stroke-opacity:1;fill-opacity:1;stroke-miterlimit:4;stroke-dasharray:none"
       d="m 349.43841,308.42939 -40.80132,40.80132 -160.57916,-160.57917 40.46904,-41.0159 z"
       id="path13411" />
    <path
       style="opacity:0.936992;fill:#ffffff;fill-opacity:0.96774191;stroke:#ffffff;stroke-width:15.1181;stroke-linecap:square;stroke-linejoin:round;stroke-opacity:0"
       d="m 852.10269,804.59804 c -5.7754,-1.70876 -49.56577,-44.31412 -53.59659,-52.14621 -5.29289,-10.28435 -2.11495,-21.12871 8.23593,-28.10416 5.39714,-3.63714 14.70466,-4.16351 20.38079,-1.15261 5.60119,2.97116 50.61953,48.85189 52.26282,53.26398 2.14055,5.74721 1.75734,10.3689 -1.40064,16.89242 -4.61846,9.54047 -15.5679,14.2983 -25.88231,11.24658 z"
       id="path11898"
       transform="scale(0.26458333)" />
    <path
       style="opacity:0.936992;fill:#ffffff;fill-opacity:1;stroke:#ffffff;stroke-width:15.1181;stroke-linecap:square;stroke-linejoin:round;stroke-opacity:0"
       d="m 1236.9863,1190.9516 c -1.8836,-0.7372 -78.1741,-76.0578 -169.5345,-167.3789 C 890.1815,846.37853 895.83566,852.4603 897.69846,840.98117 c 2.2314,-13.75051 18.99086,-22.68339 30.79422,-16.41348 2.03451,1.08072 78.70192,77.05675 170.37192,168.83561 180.8568,181.0715 171.4333,170.8346 168.2262,182.7445 -3.4571,12.8391 -17.4919,19.7406 -30.1045,14.8038 z"
       id="path11859"
       transform="scale(0.26458333)" />
    <path
       style="fill:#cd9f0b;stroke:#ffffff;stroke-width:1;stroke-linecap:butt;stroke-linejoin:miter;stroke-opacity:1;fill-opacity:1;stroke-miterlimit:4;stroke-dasharray:none"
       d="m 367.34499,348.42448 c 0.0664,-0.10426 0.19928,-0.31284 0.22717,-0.52439 0.0279,-0.21156 -0.0494,-0.42635 -2.03022,-5.17608 -1.98085,-4.74973 -5.86515,-14.03407 -7.81581,-18.69176 -1.95066,-4.65769 -1.96766,-4.68859 -1.99783,-4.75504 -0.0302,-0.0665 -0.0734,-0.16844 -0.12668,-0.22107 -0.0533,-0.0526 -0.11657,-0.0556 -0.17849,-0.0301 -0.0619,0.0255 -0.1222,0.0796 -6.03852,5.96272 -5.91632,5.8831 -17.68821,17.59474 -23.72648,23.62065 -6.03827,6.02591 -6.34267,6.36584 -6.46146,6.55287 -0.1188,0.18702 -0.0524,0.22101 2.33718,1.23924 2.38954,1.01822 7.10201,3.02064 11.87487,5.03007 4.77287,2.00942 9.60586,4.02575 12.06721,5.05247 2.46136,1.02672 2.55096,1.06379 2.6259,1.09314 0.075,0.0294 0.13519,0.051 0.17781,0.0665 0.0426,0.0155 0.0671,0.0247 0.10789,0.006 0.0408,-0.0186 0.098,-0.065 2.82128,-2.77279 2.72329,-2.70784 8.11251,-8.07697 11.13859,-11.12546 3.02608,-3.04848 3.68891,-3.77622 4.1169,-4.25983 0.42798,-0.4836 0.62113,-0.72309 0.71771,-0.84285 0.0966,-0.11976 0.0966,-0.12005 0.16298,-0.22431 z"
       id="path13783"
       inkscape:path-effect="#path-effect13785"
       inkscape:original-d="m 367.27857,348.52874 c 0.13314,-0.20833 0.26601,-0.4169 0.39862,-0.62576 -0.077,-0.2145 -0.15425,-0.42929 -0.23177,-0.64432 -3.88419,-9.28444 -7.76851,-18.56877 -11.65315,-27.85356 -0.0167,-0.0306 -0.0337,-0.0615 -0.051,-0.0927 -0.043,-0.1017 -0.0863,-0.20367 -0.1298,-0.30591 -0.0631,-0.003 -0.12642,-0.006 -0.19003,-0.009 -0.06,0.0543 -0.12025,0.10843 -0.18079,0.16224 -11.7721,11.71237 -23.544,23.42401 -35.31639,35.13564 -0.30414,0.34017 -0.60852,0.68011 -0.91316,1.01975 0.0667,0.0343 0.13314,0.0683 0.19931,0.10197 4.71292,2.00277 9.42539,4.00519 14.13769,6.00737 4.83344,2.01665 9.66642,4.03299 14.49925,6.04909 0.0899,0.0373 0.17949,0.0744 0.26884,0.11123 0.0605,0.022 0.12079,0.0435 0.18077,0.0649 0.0251,0.01 0.0497,0.0188 0.0742,0.0278 0.0574,-0.0461 0.11462,-0.0924 0.17153,-0.13907 5.38967,-5.36905 10.77889,-10.73819 16.16794,-16.10767 0.66313,-0.7275 1.32596,-1.45524 1.98853,-2.18324 0.19341,-0.23923 0.38656,-0.47871 0.57944,-0.71847 z" />
    <path
       style="fill:#797979;stroke:#ffffff;stroke-width:1;stroke-linecap:butt;stroke-linejoin:miter;stroke-opacity:1;fill-opacity:1;stroke-miterlimit:4;stroke-dasharray:none"
       d="m 128.86128,169.65536 40.76511,-40.76512 10.83109,10.69042 -40.85531,40.82574 z"
       id="path15241" />
    <path
       style="fill:#808080;fill-opacity:1;stroke:#ffffff;stroke-width:0.264583px;stroke-linecap:butt;stroke-linejoin:miter;stroke-opacity:1"
       d="m 372.71854,360.045 8.94291,21.43125 -10.474,-4.30628 -10.95725,-4.6631 c 0,0 4.13056,-4.38825 6.26424,-6.51521 2.03219,-2.02578 6.2241,-5.94666 6.2241,-5.94666 z"
       id="path19036"
       sodipodi:nodetypes="ccccsc" />
    <path
       style="fill:none;stroke:#000000;stroke-width:0.264583px;stroke-linecap:butt;stroke-linejoin:miter;stroke-opacity:1"
       d="m 126.29372,153.30914 c 0,0 26.88234,-27.08196 26.88234,-27.08196 -2.70645,-3.11552 -5.41266,-6.23075 -7.92073,-8.01122 -2.50807,-1.78046 -4.81777,-2.22564 -6.94451,-2.40375 -2.12675,-0.17812 -4.07028,-0.0891 -7.44012,2.51201 -3.36984,2.60108 -8.16533,7.71389 -11.23973,11.57913 -3.0744,3.86524 -4.42734,6.48239 -4.22758,8.96671 0.19976,2.48432 1.95196,4.83537 4.02585,7.21975 2.07389,2.38437 4.46903,4.80169 6.86448,7.21933 z"
       id="path21181"
       inkscape:path-effect="#path-effect21183"
       inkscape:original-d="m 126.29372,153.30914 26.88234,-27.08196 c 0,0 -5.41264,-6.23077 -8.11936,-9.34655 -2.30948,-0.44492 -4.61918,-0.89011 -6.92923,-1.33557 -1.94338,0.0893 -3.88692,0.17835 -5.83084,0.26713 -4.7955,5.11336 -9.59099,10.22617 -14.387,15.33899 -1.35275,2.61757 -2.70568,5.23472 -4.05896,7.85177 1.75253,2.3514 3.50472,4.70245 5.25669,7.05328 2.39577,2.41795 7.18636,7.25291 7.18636,7.25291 z"
       sodipodi:nodetypes="ccscccccc" />
    <path
       style="opacity:0.936992;mix-blend-mode:normal;fill:#da3b00;fill-opacity:1;stroke:#ffffff;stroke-width:3.77953;stroke-linecap:square;stroke-linejoin:round;stroke-miterlimit:4;stroke-dasharray:none;stroke-opacity:0.996078"
       d="m 434.79394,543.66408 c -2.03233,-3.80242 -5.79327,-14.10561 -6.35654,-17.83661 -0.23543,-1.55944 1.71427,-9.80952 1.97504,-11.51908 0.51898,-3.402 2.27257,-8.58195 4.28308,-12.5744 3.35207,-6.65648 9.50816,-15.71767 18.75573,-26.57256 12.69604,-14.90275 34.66198,-31.56222 45.25977,-39.55421 0,0 4.73729,-3.08859 7.19227,-3.93813 4.79358,-1.65882 3.14205,-0.41454 15.21435,-0.30693 14.38854,0.12826 27.37934,5.31968 27.37934,5.31968 l 8.45306,6.31595 c 5.65166,4.2228 7.68542,8.04161 16.85852,18.32593 1.00419,1.12583 4.30621,4.51285 6.88286,7.33514 l 7.53551,8.19766 -11.10678,12.63514 c -3.27391,3.72442 -13.09199,14.34429 -20.39144,21.70145 -13.16476,13.26883 -22.46825,20.83635 -30.24959,29.27974 l -9.16672,9.94664 -39.63154,39.34939 c -12.88657,-13.02412 -25.7444,-25.5093 -42.88692,-46.1048 z"
       id="path27153"
       sodipodi:nodetypes="cssssssscssccsssccc"
       transform="scale(0.26458333)" />
    <path
       style="opacity:0.936992;mix-blend-mode:screen;fill:#ffffff;fill-opacity:1;stroke:#ffffff;stroke-width:4;stroke-linecap:square;stroke-linejoin:round;stroke-miterlimit:4;stroke-dasharray:none;stroke-opacity:0"
       d="m 391.01149,397.80389 c -1.02837,-0.34128 -80.86497,-33.63543 -83.87873,-34.97985 -1.77555,-0.79206 -12.13117,-11.02532 -96.64609,-95.50424 -83.91265,-83.87687 -94.70768,-94.78988 -95.09983,-96.13913 -0.56267,-1.93594 -0.0394,-3.87589 1.52629,-5.65773 l 1.10609,-1.25887 -5.69162,-5.80811 c -6.08621,-6.21075 -7.84203,-8.67294 -9.12178,-12.79148 -2.76312,-8.89232 -0.8917,-17.09483 5.58078,-24.46078 3.51932,-4.00515 13.26512,-13.45793 15.36001,-14.89821 5.43551,-3.73702 12.53823,-5.15291 19.04424,-3.79636 1.37978,0.2877 4.04033,1.27863 5.91237,2.20209 3.15666,1.55715 3.83496,2.10343 9.34622,7.52718 l 5.94253,5.84818 0.86764,-0.92808 c 1.81539,-1.94181 4.58008,-2.50181 6.90596,-1.39884 0.62112,0.29455 43.71224,43.12144 95.75803,95.17089 l 94.62874,94.63534 17.7238,42.43745 c 16.09683,38.54184 17.7238,42.61826 17.7238,44.40711 0,3.06016 -1.73081,5.02291 -4.85053,5.50059 -0.68309,0.10457 -1.64513,0.0564 -2.13792,-0.10715 z m -9.86563,-17.83817 c -5.48195,-13.20946 -8.2032,-19.65621 -8.3868,-19.86873 -0.12427,-0.14386 -3.03571,2.54964 -6.4699,5.98552 -3.43416,3.43591 -6.1625,6.32849 -6.06293,6.42799 0.30474,0.30452 20.54052,8.75066 21.02421,8.7752 0.34483,0.0175 0.3199,-0.29719 -0.10458,-1.31998 z M 358.1837,358.06666 c 7.26805,-7.26652 9.59049,-9.79619 9.45256,-10.29599 -0.26614,-0.96457 -11.81123,-28.54807 -12.07788,-28.85642 -0.12376,-0.14317 -8.43854,7.94842 -18.47729,17.98134 -10.03874,10.03291 -18.16815,18.32567 -18.06542,18.42836 0.18269,0.18253 28.99229,12.30784 29.35096,12.35315 0.0999,0.0125 4.5176,-4.31206 9.81707,-9.61044 z m -29.08181,-29.31309 20.33651,-20.32417 -80.45572,-80.39687 -80.45571,-80.39689 -20.24898,20.23195 c -11.13694,11.12758 -20.24899,20.39352 -20.24899,20.59098 0,0.35292 160.20292,160.61914 160.55569,160.61914 0.0994,0 9.33211,-9.14586 20.5172,-20.32414 z M 175.2681,134.38577 c -2.85416,-2.85719 -5.35327,-5.19489 -5.55358,-5.19489 -0.20032,0 -9.47424,9.10451 -20.60872,20.23224 l -20.24452,20.23224 5.37044,5.37551 5.37045,5.37553 20.42765,-20.41287 20.42766,-20.41287 z m -34.13953,6.89334 c 8.13165,-8.124 14.78483,-14.94448 14.78483,-15.15664 0,-0.21215 -2.40998,-2.58532 -5.16009,-5.46612 -5.55697,-5.82105 -7.28006,-6.79787 -12.75898,-6.8042 -5.44805,-0.006 -6.17062,0.31074 -14.91708,9.038 -7.73667,7.71967 -8.24449,10.38514 -9.42257,12.97374 -1.08123,2.3758 0.001,5.31148 1.14786,7.70955 0.50531,1.05705 2.63075,3.83081 5.93936,7.19428 2.85788,2.90527 5.28742,5.2823 5.39899,5.2823 0.11156,0 6.85602,-6.64691 14.98768,-14.77091 z"
       id="path11937"
       sodipodi:nodetypes="ssssccssssssscssscsssscsssscssssscsscccssssssscccccsssssssssss" />
  </g>
</svg>
